<?xml version="1.0" encoding="utf-8"?>
<!-- Generator: Adobe Illustrator 24.2.3, SVG Export Plug-In . SVG Version: 6.00 Build 0)  -->
<svg version="1.1" id="Layer_1" xmlns="http://www.w3.org/2000/svg" xmlns:xlink="http://www.w3.org/1999/xlink" x="0px" y="0px"
	 viewBox="0 0 2000 915.5" style="enable-background:new 0 0 2000 915.5;" xml:space="preserve">
<style type="text/css">
	.st0{fill:#FEFEFE;}
	.st1{fill:#80221E;}
	.st2{fill:#2D2D2C;}
	.st3{fill:#019848;}
	.st4{fill:#FDFDFD;}
	.st5{fill:#FCFCFC;}
</style>
<g>
	<path class="st0" d="M1000.1,917.6c-331.1,0-662.2,0-993.3,0.2c-5.9,0-6.8-1.4-6.8-7C0.2,607.9,0.2,305,0,2.1c0-5.7,1-6.9,6.9-6.9
		c662,0.2,1324,0.2,1986,0c6.2,0,7.2,1.6,7.2,7.3c-0.2,302.9-0.2,605.8,0,908.7c0,5.2-1.1,6.5-6.5,6.5
		C1662.2,917.6,1331.2,917.6,1000.1,917.6z M741.2,415.3c-31.8,0-59,0-86.2,0c-2.3,0-5.4-1.3-5.6,3.2c-0.2,4.7,2.8,3.9,5.6,4
		c6.8,0.4,13.7,0.3,20.4,2c11,2.8,15.7,7.6,17.2,18.7c0.6,4,0.9,8,0.9,12c0.1,59.2,0.1,118.5,0,177.7c0,3.8-0.2,7.6-0.7,11.3
		c-1.7,12.3-6.8,17.4-19.2,20.1c-6.8,1.5-13.6,1.5-20.5,1.6c-4.9,0.1-4.2,3.5-3.3,5.8c1,2.6,4.2,1.2,6.4,1.2
		c49.4,0.1,98.8,0.1,148.2,0.1c1.2,0,2.4-0.1,3.5,0c2.4,0.2,3.4-0.7,3.4-3.2c0-2.6-0.6-3.9-3.5-3.9c-4.2,0-8.5-0.2-12.7-0.4
		c-20.3-1.3-27.5-8.4-27.7-28.7c-0.3-25,0-50-0.3-75.1c-0.1-4.5,1.4-5.4,5.6-5.4c20.1,0.2,40.2-0.3,60.1-2.8
		c22.3-2.7,43.5-8.8,61.3-23.3c30.3-24.8,29.8-65.9-0.9-90.2c-18.7-14.9-41-19.7-63.9-22.4C798.5,413.9,767.5,415.7,741.2,415.3z
		 M297.5,614.4c-2.4,2.1-4.1,3.7-5.8,5.2c-34.4,31.7-74.5,46.2-121.4,40.2c-34.7-4.5-59.8-21.7-72.7-54.9
		c-11.4-29.3-14.2-59.6-9.2-90.4c6.1-36.8,24.4-64.9,60.3-79.6c12.6-5.2,25.7-7.8,39.3-8.3c44.8-1.4,89.8,20.8,105,67.9
		c1.6,5.1,4.9,4.3,8.2,4c4.3-0.4,2.4-4,2.4-6.1c0.1-25.5,0.2-51,0-76.5c0-2.2,2.2-6.1-2.7-6.6c-3.8-0.4-6.3,0-7.7,4.8
		c-3.1,10.4-11,14.8-21.9,13.4c-7.3-0.9-14.2-3.3-21.2-5.5c-34.6-11.1-69.9-16.1-106.1-10.3c-41.4,6.6-78.6,22.2-107.3,53.8
		C7,498.1-6.4,535.9,6.3,579.6c10.7,36.8,35.2,62.3,69.5,78.7c36.7,17.6,75.8,22,116,19.9c33.1-1.7,63-11.8,90.9-29.8
		C295.5,640,301,630.3,297.5,614.4z M1253.2,415.3c-45.1,0-90.3,0.1-135.4-0.2c-6.4,0-7.8,1.8-7.7,7.8c0.4,19.1,0.4,38.2,0,57.3
		c-0.1,6.6,4,5.2,7.4,4.7c2.5-0.3,2.2-3.3,2.7-5.2c7.8-29.7,24.7-44.6,55.1-48.7c10.8-1.5,21.7-0.3,32.6-1c5.7-0.4,6.9,1.7,6.9,7
		c-0.2,51.4-0.1,102.9-0.1,154.3c0,17.2,0.6,34.5-0.6,51.7c-0.8,11.4-5.8,17.6-16.8,20.8c-7.4,2.1-14.9,1.9-22.5,2
		c-2.7,0-5.2-0.2-5.1,3.8c0.1,3.9,2.6,3.2,4.9,3.2c7.8,0,15.6,0,23.4,0c44.2,0,88.4,0,132.5,0c2.5,0,6,1.3,5.8-3.7
		c-0.2-4.3-3.2-3.2-5.6-3.3c-5-0.2-10,0.2-14.9-0.6c-17.7-3-24.5-9.3-24.4-24.5c0.1-22.7-0.4-45.3-0.5-68
		c-0.1-45.3,0.1-90.6-0.1-135.9c0-5,0.8-7.2,6.4-6.8c9.7,0.6,19.4,0,29,0.4c26.3,1.1,45.2,13.3,55.3,38c1.7,4.1,3.6,8.2,4.7,12.5
		c1,4,3.4,4.4,6.7,4.3c4.4-0.2,3.1-3.5,3.1-5.7c0.1-19.1-0.2-38.2,0.2-57.3c0.1-5.6-1.4-7.1-7.1-7.1
		C1343.9,415.4,1298.5,415.3,1253.2,415.3z M1844.9,672.9c45.1,0,90.3,0,135.4,0c3,0,6.3,1.2,7-4.2c3.3-27.1,7.1-54.2,10.8-81.3
		c0.5-3.7-0.5-4.9-4.4-5c-3.8-0.1-5.4,1.5-6.6,4.7c-4.3,12-9.6,23.6-16.5,34.3c-13.3,20.7-32.1,32.7-56.6,35.8
		c-18.4,2.3-36.8,0.9-55.2,1.2c-5.9,0.1-11.8,0.1-17.6-1.2c-9.2-2-13.6-6.4-14.6-15.6c-0.7-5.8-1.1-11.8-1.1-17.6
		c-0.1-55-0.1-110,0-165c0-4.9,0.2-9.9,0.8-14.8c1.5-11.8,6-16.7,17.8-19.9c8.3-2.2,16.9-1.7,25.4-1.8c2.6,0,4.5-0.1,4.5-3.7
		c0-3.6-2.1-3.6-4.6-3.5c-1.4,0-2.8,0-4.3,0c-31.7,0-63.3,0-95,0c-20.3,0-40.6,0-61,0c-2.8,0-5.2-0.1-5.1,3.9
		c0.1,3.7,2.6,3.2,4.9,3.3c5.4,0.2,10.9,0.1,16.3,0.7c16.2,1.8,22.9,9.2,23.5,25.3c0.1,3.3,0.2,6.6,0.2,9.9c0,57.1,0,114.2,0,171.4
		c0,4.7,0,9.5-0.4,14.1c-1.2,11.7-6.2,17.1-17.5,20.2c-7.7,2.1-15.5,1.7-23.2,1.7c-2.8,0-3.7,1.3-3.7,3.9s1.4,3.2,3.6,3.2
		c1.7,0,3.3,0,5,0C1756.5,672.9,1800.8,672.9,1844.9,672.9z M1612.8,672.9c23.6,0,47.3,0.1,70.9-0.1c2.4,0,6.6,2.2,6.7-3.4
		c0.1-4.7-3.2-3.7-5.8-4.1c-9.8-1.4-17.8-5.5-24.1-13.4c-8.8-10.9-15.6-23-22.3-35.2c-36.5-67.1-72.9-134.2-109.4-201.3
		c-1.2-2.1-1.5-5.2-4.9-5.4c-3.9-0.2-4.3,3.2-5.6,5.5c-25,44.9-49.7,90-74.8,134.8c-16.5,29.4-31.7,59.5-49.8,88
		c-9,14.1-20.7,24.5-38,26.9c-3.2,0.5-3.8,2.1-3.7,4.7c0.1,3.4,2.6,2.8,4.6,2.8c32.4,0,64.8,0,97.1,0c2.2,0,4.2,0.2,4.2-3.1
		c0-3.1-1.1-4.1-4.1-4.2c-5.4-0.3-10.8-0.9-16.2-1.5c-19.6-2.4-26.3-13.4-18.4-31.7c4.4-10.1,10.1-19.7,15-29.6
		c1.3-2.6,3.2-2.9,5.8-2.9c34.7,0,69.5,0,104.2,0c2.5,0,4.4,0.4,5.8,3c7.3,14.3,15.1,28.3,21.9,42.8c4.6,9.7,1.1,15.8-9.2,18.5
		c-6.9,1.8-14,1.7-21.1,1.9c-2.3,0.1-5.4-1.1-5.6,3.3c-0.2,4.9,3.3,3.7,5.8,3.7C1565.7,672.9,1589.2,672.9,1612.8,672.9z
		 M555.4,672.9c24.1,0,48.2,0,72.3,0c2.1,0,4.8,1,5-3c0.1-3.7-1.7-4.2-4.7-4.4c-12.2-0.9-21.1-7.3-28.1-16.9
		c-7.5-10.4-13.8-21.4-19.9-32.6c-36.2-66.7-72.4-133.3-108.7-200c-1.3-2.3-1.5-5.8-5.3-5.8s-4.2,3.4-5.4,5.7
		c-36.4,65.5-72.7,131.1-109,196.6c-5.7,10.3-11.6,20.5-18.4,30.1c-8.6,12.1-19.6,20.3-34.5,22.7c-2.8,0.5-4.2,1.1-4.2,4.2
		c0,3.8,2.3,3.4,4.7,3.4c32.1,0,64.3,0,96.4,0c2.3,0,4.7,0.4,4.7-3.3c0-3.3-1.6-3.9-4.4-4c-5.4-0.4-10.8-0.9-16.2-1.6
		c-18.9-2.4-25.5-13.1-18.6-30.7c4.2-10.8,10.6-20.5,15.7-30.8c1.4-2.8,3.5-2.7,5.9-2.7c34.5,0,69,0,103.5,0c2.4,0,4.6-0.2,6,2.5
		c7.5,14.7,15.5,29.1,22.4,44.1c4.2,9,0.6,14.9-9,17.5c-6.9,1.9-14,1.8-21.1,2c-2.6,0.1-6.1-1.2-6.1,3.6c0,5,3.7,3.3,6.1,3.4
		C508.1,672.9,531.8,672.9,555.4,672.9z M998.7,672.9c26,0,52,0,78,0c2.5,0,6,1.3,5.8-3.6c-0.1-4.4-3.1-3.2-5.5-3.3
		c-5-0.2-9.9,0-14.9-0.6c-16.5-1.8-23.3-9-24.2-25.4c-0.2-4.5-0.4-9-0.4-13.4c0-54.8,0-109.5,0-164.3c0-5.9,0.2-11.8,0.6-17.7
		c0.7-10.4,5.5-16.5,15.3-19.7c7.3-2.3,14.9-2.3,22.4-2.5c2.6-0.1,6.7,1.8,6.5-3.7s-4.3-3.2-6.8-3.3c-4.7-0.3-9.4-0.1-14.2-0.1
		c-45.8,0-91.7-0.1-137.5,0.1c-2.7,0-7.9-2.9-7.8,3.6c0.1,5.9,4.8,2.9,7.4,3.3c4.7,0.6,9.5,0.3,14.1,0.9c15.5,2,21.9,8.9,22.7,24.4
		c0.3,5.9,0.5,11.8,0.5,17.7c0,52.6,0,105.3,0,157.9c0,6.8-0.2,13.7-0.7,20.5c-0.7,10.8-5.6,16.9-15.9,20c-6.9,2.1-14,1.9-21.1,2.2
		c-2.6,0.1-7.3-2.4-7.1,3.6s4.9,3.2,7.4,3.2C948.6,673,973.7,672.9,998.7,672.9z M1185.8,819.5
		C1185.8,819.5,1185.7,819.5,1185.8,819.5c0,22.4,0.1,44.9-0.1,67.3c-0.1,12.7-5.6,18.4-18.3,19.4c-3.8,0.3-7.6,0.2-11.3,0.2
		c-1.5,0-2.7,0.4-2.8,2.3c-0.1,2.2,0.9,3,3,2.9c1.2,0,2.4,0,3.5,0c33.8,0,67.6,0,101.4,0c14,0,27.8-1.1,41.5-4
		c23.8-5,46-13.2,62.5-31.9c38.3-43.5,22.9-110-31.1-134.9c-21.5-9.9-44.4-12.8-67.6-13c-35.7-0.3-71.4-0.1-107.1-0.2
		c-1.2,0-2.4,0-3.5,0c-1.6,0-2.7,0.4-2.6,2.4c0,1.8,1,2.4,2.6,2.5c3.3,0.1,6.6,0.1,9.9,0.4c15.7,1.5,19.9,5.9,20,21.4
		C1185.8,776,1185.8,797.8,1185.8,819.5z M1051.9,150.5c-2-54.1-23.1-104.7-56.3-151c-2.7-3.7-3.8-2.6-5.8,0.4
		C965.4,36.5,945.4,75,938.3,119c-9,55.4,5.9,102.6,48.9,140.1c5.1,4.5,8.4,4.4,13.7,0.6C1037.4,233.8,1051.4,197.2,1051.9,150.5z
		 M756.8,725c-4.7,0-9.5-0.2-14.2,0c-30,1.5-56.8,10.9-79.3,31.3c-16.2,14.7-26.4,32.6-27.9,54.7c-2.9,41.6,16.9,70.3,52.2,89.6
		c19,10.4,40,14.1,61.4,15c30.2,1.2,59.4-2.7,85.7-19c35.9-22.3,52.7-60.1,43.1-98.6c-7.2-28.9-26.9-47.5-52.8-60.2
		C803.5,727.2,780.4,724.4,756.8,725z M1018.9,725c-2.8,0-7.3-0.2-11.7,0c-30.2,1.3-57.4,10.7-80.1,31.2
		c-23.8,21.6-32.7,48.6-26.6,80c6.3,32.5,27.4,53.4,56.4,67.1c17.3,8.2,35.9,11.4,54.9,12.2c32.5,1.4,63.7-2.9,91.2-22
		c32.7-22.7,47.4-58.1,38.7-94.7c-7-29.3-26.8-48.1-52.8-61C1067.3,727.2,1044.2,724.4,1018.9,725z M820.6,137.1
		c-11.2,43.7-1.9,88.6,25.8,124.7c28.5,37.3,66.8,61.1,110.1,77.8c8.6,3.3,17.3,6.1,26.5,7.5c3.7,0.6,5.1-0.6,5.5-4.3
		c2.2-18.9,2.7-37.6-1.9-56.2c-7.5-30.5-27.8-50.6-54.1-65.8c-16.1-9.3-33.3-16.7-49.8-25.2C856.8,182.5,831.3,169,820.6,137.1z
		 M1170.5,138.9c-11.1,30.8-37.5,44.3-63.9,57.7c-16.4,8.3-33.2,15.7-49.1,24.9c-45.6,26.7-60.8,62.5-55.4,114.9
		c1.3,12.2,1.7,12.5,13.5,9.1c44.5-12.5,83.6-34.6,115.7-68C1168.8,238.6,1182.4,192.3,1170.5,138.9z M524.4,727.6
		c-29.5,0-59.1-0.1-88.6,0.1c-2.8,0-8.1-2.1-8.3,1.9c-0.3,5.7,5.4,2.6,8.2,2.8c18.9,1,23.8,5.8,23.9,24.4c0.1,33.8,0.1,67.5,0,101.3
		c0,10.4,0.1,20.8-0.2,31.2c-0.3,9.5-3.9,13.4-13,16c-5.4,1.5-10.8,1-16.2,1.2c-1.9,0.1-3.2,0.5-3.1,2.8c0.1,1.8,1.1,2.4,2.7,2.4
		c1.7,0,3.3,0,5,0c33.8,0,67.6,0,101.4,0c2.8,0,5.7-0.1,8.5,0c2,0.1,3.2-0.5,3.2-2.7c0-2.3-1.3-2.6-3.2-2.6c-3.3,0-6.7,0.3-9.9-0.2
		c-15.6-2.3-19.1-7-19.3-18.7c-0.2-19.8-0.2-39.7-0.3-59.5c0-2.3,0-4.2,3.2-4.2c24.9-0.2,48.6,6.5,53.2,37.9
		c0.4,2.6,0.2,5.3,4.2,4.9s2.5-3.5,2.5-5.4c0.1-27.2,0.1-54.3,0-81.5c0-2,1.4-5-2.5-5.4c-4-0.4-3.8,2.3-4.3,4.9
		c-2.5,12-8.2,22.1-19.2,28.4c-10.5,5.9-22.1,6.1-33.7,6.3c-3.8,0.1-3.3-2.6-3.3-4.9c0-22,0.1-43.9-0.1-65.9c0-4.1,1.4-5.1,5.3-5.1
		c15.8,0,31.7-0.4,47.5,1.4c26.9,3.1,43.3,13.5,46.5,37.2c0.4,2.9,1.8,3.9,4.7,3.8c3.9-0.1,3.1-2.8,3.1-5c0-13.7-0.3-27.4,0.2-41.1
		c0.2-6-2-6.8-7.2-6.8C585,727.7,554.7,727.6,524.4,727.6z M1411,880.6c0,10.2-0.1,20.3,0.1,30.5c0,1.6-1.1,4.1,1.6,4.7
		c2,0.4,4.1,0.4,5.7-1.7c7.5-10.4,17.4-10.6,28.4-6.9c11.6,3.9,23.4,7.5,35.7,8.4c27.3,1.9,52.9-2.3,74-21.2
		c22.7-20.3,22-50.7-1.3-70.2c-6.2-5.2-13.1-9.2-20.2-12.9c-18.8-10-39-16.5-58.4-25.2c-7.4-3.3-14.5-6.9-20.5-12.3
		c-11.6-10.3-11.1-22.9,1.5-32.2c10.8-7.9,23.3-9.3,35.9-7.3c28,4.5,48.6,18.7,57.2,46.9c1,3.2,2.7,3.9,5.6,3.6
		c3.7-0.3,2.4-3,2.3-4.7c-0.4-17.5-1-34.9-1.5-52.4c-0.1-1.7,0.6-3.9-2.4-4.1c-2.5-0.2-3.1,1.3-3.9,3.1c-4.5,9.8-7.2,11.1-17.5,8.2
		c-3.8-1.1-7.6-2.5-11.3-4c-15-5.8-30.5-8.2-46.5-7.2c-19.7,1.3-37.5,7.5-51.5,22c-16.8,17.5-17.1,42-0.8,60
		c6.6,7.2,14.5,12.8,23.1,17.4c14.4,7.7,29.5,13.5,44.6,19.7c11.1,4.5,22.4,8.8,31.9,16.5c16.3,13.2,14.8,30.9-3.5,41.3
		c-3.7,2.1-7.7,3.6-11.9,4.5c-13,2.7-25.9,2.1-38.4-2.2c-25.4-8.7-42.3-25.8-50.3-51.5c-0.8-2.6-1.2-5-4.8-4.7
		c-4.5,0.4-2.6,3.8-2.7,5.9C1410.9,861.7,1411,871.1,1411,880.6z"/>
	<path class="st1" d="M741.2,415.3c26.3,0.5,57.3-1.4,88.1,2.3c22.9,2.7,45.2,7.5,63.9,22.4c30.7,24.3,31.2,65.4,0.9,90.2
		c-17.8,14.6-39,20.6-61.3,23.3c-20,2.4-40,3-60.1,2.8c-4.2-0.1-5.6,0.8-5.6,5.4c0.3,25,0,50,0.3,75.1c0.2,20.2,7.3,27.4,27.7,28.7
		c4.2,0.3,8.5,0.5,12.7,0.4c2.9,0,3.5,1.4,3.5,3.9s-1,3.4-3.4,3.2c-1.2-0.1-2.4,0-3.5,0c-49.4,0-98.8,0-148.2-0.1
		c-2.2,0-5.4,1.3-6.4-1.2c-0.9-2.3-1.6-5.8,3.3-5.8c6.8-0.1,13.7-0.1,20.5-1.6c12.4-2.7,17.5-7.8,19.2-20.1
		c0.5-3.7,0.7-7.5,0.7-11.3c0-59.2,0-118.5,0-177.7c0-4-0.3-8-0.9-12c-1.6-11-6.3-15.9-17.2-18.7c-6.7-1.7-13.6-1.5-20.4-2
		c-2.7-0.2-5.8,0.7-5.6-4c0.2-4.5,3.3-3.2,5.6-3.2C682.2,415.2,709.4,415.3,741.2,415.3z M767.2,485.7c0,16.7,0.2,33.5-0.1,50.2
		c-0.1,4.8,1.5,6,6,6.1c7.6,0.1,15.1-0.1,22.6-1.5c20-3.8,35-13.8,40.4-34.6c3.5-13.5,3.5-27.1,0.1-40.5
		c-4-15.7-14.1-25.7-29.3-30.9c-11.1-3.8-22.6-4.4-34.2-4.4c-4.3,0-5.6,1-5.5,5.4C767.4,452.3,767.2,469,767.2,485.7z"/>
	<path class="st1" d="M297.5,614.4c3.5,16-2,25.6-15,34.1c-27.9,18.1-57.9,28.1-90.9,29.8c-40.2,2.1-79.2-2.3-116-19.9
		c-34.3-16.4-58.8-42-69.5-78.7C-6.6,536,6.8,498.2,36.5,465.6c28.7-31.5,66-47.1,107.3-53.8c36.2-5.8,71.5-0.8,106.1,10.3
		c7,2.2,13.9,4.6,21.2,5.5c10.9,1.4,18.8-3.1,21.9-13.4c1.4-4.8,3.9-5.1,7.7-4.8c4.9,0.5,2.7,4.3,2.7,6.6c0.2,25.5,0.2,51,0,76.5
		c0,2.1,1.9,5.7-2.4,6.1c-3.3,0.3-6.6,1-8.2-4c-15.2-47-60.2-69.3-105-67.9c-13.6,0.4-26.7,3.1-39.3,8.3
		c-35.8,14.6-54.2,42.8-60.3,79.6c-5.1,30.8-2.3,61.2,9.2,90.4c13,33.1,38,50.4,72.7,54.9c46.9,6.1,87-8.4,121.4-40.2
		C293.4,618,295.1,616.5,297.5,614.4z"/>
	<path class="st1" d="M1253.2,415.3c45.4,0,90.7,0.1,136.1-0.1c5.6,0,7.2,1.5,7.1,7.1c-0.3,19.1-0.1,38.2-0.2,57.3
		c0,2.2,1.3,5.5-3.1,5.7c-3.4,0.2-5.7-0.2-6.7-4.3c-1.1-4.3-3-8.4-4.7-12.5c-10.1-24.7-29-36.9-55.3-38c-9.7-0.4-19.4,0.2-29-0.4
		c-5.7-0.3-6.5,1.8-6.4,6.8c0.2,45.3,0,90.6,0.1,135.9c0,22.7,0.5,45.3,0.5,68c0,15.2,6.8,21.5,24.4,24.5c4.8,0.8,9.9,0.4,14.9,0.6
		c2.4,0.1,5.4-1,5.6,3.3c0.2,4.9-3.2,3.7-5.8,3.7c-44.2,0-88.4,0-132.5,0c-7.8,0-15.6,0-23.4,0c-2.2,0-4.8,0.7-4.9-3.2
		c-0.1-4,2.4-3.8,5.1-3.8c7.6,0,15.1,0.2,22.5-2c11-3.2,16-9.3,16.8-20.8c1.2-17.2,0.6-34.4,0.6-51.7c0.1-51.4,0-102.9,0.1-154.3
		c0-5.4-1.1-7.4-6.9-7c-10.8,0.7-21.7-0.5-32.6,1c-30.4,4.2-47.3,19.1-55.1,48.7c-0.5,1.9-0.2,4.9-2.7,5.2c-3.4,0.4-7.5,1.9-7.4-4.7
		c0.3-19.1,0.4-38.2,0-57.3c-0.1-6.1,1.2-7.9,7.7-7.8C1162.9,415.4,1208,415.3,1253.2,415.3z"/>
	<path class="st1" d="M1844.9,672.9c-44.2,0-88.4,0-132.6,0c-1.7,0-3.3,0-5,0c-2.2,0.1-3.6-0.6-3.6-3.2s0.8-3.9,3.7-3.9
		c7.8,0,15.6,0.4,23.2-1.7c11.4-3.1,16.3-8.5,17.5-20.2c0.5-4.7,0.4-9.4,0.4-14.1c0-57.1,0-114.2,0-171.4c0-3.3,0-6.6-0.2-9.9
		c-0.6-16.1-7.4-23.5-23.5-25.3c-5.4-0.6-10.8-0.5-16.3-0.7c-2.3-0.1-4.8,0.4-4.9-3.3c-0.1-4,2.3-3.9,5.1-3.9c20.3,0,40.6,0,61,0
		c31.7,0,63.3,0,95,0c1.4,0,2.8,0,4.3,0c2.5-0.1,4.6-0.1,4.6,3.5c0,3.5-1.9,3.7-4.5,3.7c-8.5,0-17-0.4-25.4,1.8
		c-11.7,3.1-16.3,8-17.8,19.9c-0.6,4.9-0.8,9.9-0.8,14.8c-0.1,55-0.1,110,0,165c0,5.9,0.4,11.8,1.1,17.6c1.1,9.2,5.5,13.6,14.6,15.6
		c5.8,1.2,11.7,1.3,17.6,1.2c18.4-0.3,36.8,1.1,55.2-1.2c24.6-3.1,43.3-15,56.6-35.8c6.9-10.8,12.2-22.3,16.5-34.3
		c1.2-3.3,2.8-4.8,6.6-4.7c3.9,0.1,4.9,1.3,4.4,5c-3.7,27.1-7.5,54.2-10.8,81.3c-0.7,5.4-3.9,4.2-7,4.2
		C1935.2,672.9,1890.2,672.9,1844.9,672.9z"/>
	<path class="st1" d="M1612.8,672.9c-23.6,0-47.3,0-70.9,0c-2.6,0-6,1.2-5.8-3.7c0.2-4.3,3.3-3.2,5.6-3.3c7.1-0.2,14.2-0.1,21.1-1.9
		c10.3-2.8,13.8-8.8,9.2-18.5c-6.9-14.5-14.7-28.5-21.9-42.8c-1.3-2.6-3.2-3-5.8-3c-34.7,0-69.5,0-104.2,0c-2.5,0-4.5,0.3-5.8,2.9
		c-4.9,9.9-10.6,19.5-15,29.6c-7.9,18.3-1.2,29.3,18.4,31.7c5.4,0.7,10.8,1.2,16.2,1.5c3,0.2,4.1,1.2,4.1,4.2c0,3.3-2,3.1-4.2,3.1
		c-32.4,0-64.8,0-97.1,0c-2,0-4.5,0.6-4.6-2.8c-0.1-2.7,0.5-4.3,3.7-4.7c17.2-2.4,29-12.8,38-26.9c18.1-28.5,33.3-58.6,49.8-88
		c25.1-44.8,49.8-89.9,74.8-134.8c1.3-2.3,1.7-5.7,5.6-5.5c3.4,0.2,3.8,3.2,4.9,5.4c36.5,67.1,72.9,134.2,109.4,201.3
		c6.6,12.2,13.5,24.3,22.3,35.2c6.3,7.8,14.4,12,24.1,13.4c2.6,0.4,6-0.6,5.8,4.1c-0.2,5.6-4.3,3.3-6.7,3.4
		C1660.2,672.9,1636.5,672.9,1612.8,672.9z M1540.5,585.7c-16.1-30.1-31.5-59-47.4-88.8c-16,29-31.3,56.8-46.7,84.6
		c-2.1,3.8-0.6,4.2,2.8,4.2C1479.2,585.7,1509.2,585.7,1540.5,585.7z"/>
	<path class="st1" d="M555.4,672.9c-23.6,0-47.3,0-70.9-0.1c-2.4,0-6.1,1.6-6.1-3.4c0-4.8,3.5-3.5,6.1-3.6c7.1-0.2,14.2-0.1,21.1-2
		c9.6-2.7,13.2-8.6,9-17.5c-7-14.9-15-29.4-22.4-44.1c-1.4-2.7-3.6-2.5-6-2.5c-34.5,0-69,0-103.5,0c-2.4,0-4.5-0.1-5.9,2.7
		c-5.1,10.3-11.5,20.1-15.7,30.8c-6.9,17.6-0.3,28.3,18.6,30.7c5.4,0.7,10.8,1.2,16.2,1.6c2.8,0.2,4.3,0.8,4.4,4
		c0,3.8-2.4,3.3-4.7,3.3c-32.1,0-64.3,0-96.4,0c-2.4,0-4.8,0.4-4.7-3.4c0-3.1,1.5-3.8,4.2-4.2c14.8-2.4,25.9-10.6,34.5-22.7
		c6.8-9.7,12.7-19.8,18.4-30.1c36.3-65.5,72.6-131.1,109-196.6c1.3-2.3,1.6-5.7,5.4-5.7s4.1,3.5,5.3,5.8
		c36.3,66.6,72.5,133.3,108.7,200c6.1,11.2,12.4,22.2,19.9,32.6c7,9.7,15.9,16,28.1,16.9c3,0.2,4.8,0.7,4.7,4.4c-0.1,4-2.8,3-5,3
		C603.6,672.9,579.5,672.9,555.4,672.9z M482.6,585.5c-16-29.9-31.4-58.8-47.4-88.7c-16.6,30.2-32.5,59.1-48.8,88.7
		C419.1,585.5,450.1,585.5,482.6,585.5z"/>
	<path class="st1" d="M998.7,672.9c-25,0-50.1,0.1-75.1-0.1c-2.5,0-7.2,2.8-7.4-3.2s4.5-3.5,7.1-3.6c7.1-0.3,14.2-0.1,21.1-2.2
		c10.3-3.1,15.2-9.2,15.9-20c0.4-6.8,0.7-13.7,0.7-20.5c0.1-52.6,0-105.3,0-157.9c0-5.9-0.1-11.8-0.5-17.7
		c-0.9-15.5-7.2-22.4-22.7-24.4c-4.7-0.6-9.5-0.3-14.1-0.9c-2.6-0.4-7.3,2.6-7.4-3.3c-0.1-6.5,5.1-3.6,7.8-3.6
		c45.8-0.2,91.7-0.1,137.5-0.1c4.7,0,9.5-0.2,14.2,0.1c2.5,0.2,6.6-2.1,6.8,3.3c0.2,5.5-3.9,3.6-6.5,3.7c-7.6,0.2-15.1,0.1-22.4,2.5
		c-9.8,3.1-14.7,9.3-15.3,19.7c-0.4,5.9-0.6,11.8-0.6,17.7c0,54.8,0,109.5,0,164.3c0,4.5,0.1,9,0.4,13.4
		c0.9,16.4,7.7,23.6,24.2,25.4c4.9,0.5,9.9,0.3,14.9,0.6c2.4,0.1,5.4-1,5.5,3.3c0.2,5-3.3,3.6-5.8,3.6
		C1050.7,672.9,1024.7,672.9,998.7,672.9z"/>
	<path class="st2" d="M1185.8,819.5c0-21.7,0.1-43.4,0-65.2c-0.1-15.5-4.3-19.9-20-21.4c-3.3-0.3-6.6-0.3-9.9-0.4
		c-1.6-0.1-2.6-0.7-2.6-2.5c0-2,1.1-2.4,2.6-2.4c1.2,0,2.4,0,3.5,0c35.7,0,71.4-0.2,107.1,0.2c23.3,0.2,46.2,3.1,67.6,13
		c54,24.9,69.4,91.4,31.1,134.9c-16.5,18.8-38.8,27-62.5,31.9c-13.7,2.9-27.6,4-41.5,4c-33.8,0.1-67.6,0-101.4,0c-1.2,0-2.4,0-3.5,0
		c-2,0-3.1-0.8-3-2.9c0.1-1.9,1.3-2.3,2.8-2.3c3.8-0.1,7.6,0.1,11.3-0.2c12.7-1,18.2-6.7,18.3-19.4
		C1185.8,864.3,1185.7,841.9,1185.8,819.5C1185.7,819.5,1185.8,819.5,1185.8,819.5z M1241.2,814.9
		C1241.3,814.9,1241.3,814.9,1241.2,814.9c0,23.1-0.1,46.2,0.1,69.3c0.1,13.7,2.9,16.3,16.5,17.2c30,2.1,52-12.3,61-40.9
		c8.2-26.1,8.2-52.6-0.1-78.6c-7.5-23.3-22.7-38.9-48-42.4c-7.7-1.1-15.5-0.9-23.3-1.7c-5.1-0.5-6.3,1.4-6.3,6.3
		C1241.4,767.7,1241.2,791.3,1241.2,814.9z"/>
	<path class="st3" d="M1051.9,150.5c-0.5,46.7-14.6,83.3-51.1,109.3c-5.3,3.8-8.6,3.8-13.7-0.6c-43-37.5-58-84.7-48.9-140.1
		c7.2-43.9,27.1-82.5,51.6-119.1c2-3.1,3.2-4.1,5.8-0.4C1028.8,45.8,1049.9,96.4,1051.9,150.5z"/>
	<path class="st2" d="M756.8,725c23.7-0.6,46.7,2.2,68.2,12.8c25.9,12.7,45.6,31.3,52.8,60.2c9.6,38.5-7.2,76.2-43.1,98.6
		c-26.3,16.4-55.5,20.2-85.7,19c-21.4-0.9-42.4-4.5-61.4-15c-35.3-19.3-55.1-48-52.2-89.6c1.6-22.1,11.7-40,27.9-54.7
		c22.5-20.4,49.4-29.8,79.3-31.3C747.3,724.8,752.1,725,756.8,725z M818.7,817.6c0.1-10.3-0.7-22.5-3.1-34.6
		c-6-30-25.3-47.8-53.7-49.4c-29.1-1.6-50.8,14.2-59.9,43.7c-2.7,8.8-4.2,17.9-4.9,27.1c-1.7,22.8-0.8,45.4,8.3,66.8
		c9.7,22.8,27,34.2,51.9,34.4c24.8,0.2,42.4-10.7,52.6-33.4C817.4,855.5,818.8,837.7,818.7,817.6z"/>
	<path class="st2" d="M1018.9,725c25.4-0.6,48.5,2.3,69.9,12.8c26.1,12.9,45.9,31.7,52.8,61c8.7,36.6-6,72-38.7,94.7
		c-27.5,19.1-58.7,23.4-91.2,22c-19-0.8-37.6-4-54.9-12.2c-29-13.7-50.1-34.6-56.4-67.1c-6.1-31.4,2.8-58.3,26.6-80
		c22.7-20.6,49.8-29.9,80.1-31.2C1011.6,724.8,1016.1,725,1018.9,725z M1082.3,818.7c0.2-11.1-0.7-23.6-3.1-35.9
		c-5.9-29.3-24-46.3-51.8-49c-27.1-2.6-50.2,10.9-59.4,37.2c-11.5,32.8-11.3,66.3,0.7,99.1c5.2,14.2,14.2,25.9,29,31.2
		c26.5,9.4,62.8,6.7,77.6-33.1C1081.2,852.6,1082.5,836.5,1082.3,818.7z"/>
	<path class="st3" d="M820.6,137.1c10.6,31.9,36.2,45.4,62,58.6c16.6,8.5,33.7,15.8,49.8,25.2c26.2,15.2,46.5,35.3,54.1,65.8
		c4.6,18.6,4.1,37.4,1.9,56.2c-0.4,3.6-1.8,4.8-5.5,4.3c-9.2-1.4-17.9-4.2-26.5-7.5c-43.2-16.7-81.5-40.5-110.1-77.8
		C818.7,225.7,809.4,180.8,820.6,137.1z"/>
	<path class="st3" d="M1170.5,138.9c11.9,53.4-1.8,99.7-39.3,138.7c-32.1,33.4-71.2,55.4-115.7,68c-11.8,3.3-12.2,3.1-13.5-9.1
		c-5.4-52.4,9.8-88.2,55.4-114.9c15.9-9.3,32.8-16.6,49.1-24.9C1133,183.1,1159.4,169.7,1170.5,138.9z"/>
	<path class="st2" d="M524.4,727.6c30.3,0,60.5,0.1,90.8-0.1c5.2,0,7.4,0.8,7.2,6.8c-0.5,13.7-0.1,27.4-0.2,41.1
		c0,2.2,0.8,4.9-3.1,5c-2.9,0.1-4.3-0.8-4.7-3.8c-3.2-23.7-19.7-34.1-46.5-37.2c-15.7-1.8-31.6-1.3-47.5-1.4c-3.9,0-5.4,1-5.3,5.1
		c0.2,22,0.1,43.9,0.1,65.9c0,2.3-0.5,5,3.3,4.9c11.6-0.2,23.2-0.4,33.7-6.3c11.1-6.3,16.7-16.3,19.2-28.4c0.5-2.6,0.3-5.3,4.3-4.9
		s2.5,3.4,2.5,5.4c0.1,27.2,0.1,54.3,0,81.5c0,2,1.5,5-2.5,5.4s-3.8-2.2-4.2-4.9c-4.5-31.4-28.2-38.1-53.2-37.9
		c-3.2,0-3.2,1.9-3.2,4.2c0.1,19.8,0.1,39.7,0.3,59.5c0.1,11.6,3.6,16.4,19.3,18.7c3.2,0.5,6.6,0.2,9.9,0.2c1.9,0,3.2,0.3,3.2,2.6
		c0,2.2-1.2,2.8-3.2,2.7c-2.8-0.1-5.7,0-8.5,0c-33.8,0-67.6,0-101.4,0c-1.7,0-3.3,0-5,0c-1.6,0-2.6-0.6-2.7-2.4
		c-0.1-2.3,1.2-2.8,3.1-2.8c5.4-0.2,10.8,0.3,16.2-1.2c9.2-2.6,12.7-6.5,13-16c0.3-10.4,0.2-20.8,0.2-31.2c0-33.8,0-67.5,0-101.3
		c0-18.6-5-23.3-23.9-24.4c-2.8-0.2-8.5,3-8.2-2.8c0.2-4,5.5-1.9,8.3-1.9C465.4,727.5,494.9,727.6,524.4,727.6z"/>
	<path class="st2" d="M1411,880.6c0-9.4-0.1-18.9,0.1-28.3c0-2.1-1.8-5.5,2.7-5.9c3.7-0.3,4,2.1,4.8,4.7
		c7.9,25.7,24.8,42.9,50.3,51.5c12.6,4.3,25.4,4.9,38.4,2.2c4.2-0.9,8.2-2.4,11.9-4.5c18.3-10.3,19.8-28.1,3.5-41.3
		c-9.5-7.7-20.8-11.9-31.9-16.5c-15.1-6.1-30.2-12-44.6-19.7c-8.6-4.6-16.5-10.1-23.1-17.4c-16.3-18-16.1-42.5,0.8-60
		c14-14.6,31.7-20.7,51.5-22c16-1,31.5,1.3,46.5,7.2c3.7,1.5,7.5,2.9,11.3,4c10.3,2.9,13.1,1.6,17.5-8.2c0.8-1.8,1.4-3.3,3.9-3.1
		c3,0.3,2.4,2.4,2.4,4.1c0.6,17.5,1.1,34.9,1.5,52.4c0,1.7,1.4,4.4-2.3,4.7c-3,0.2-4.6-0.4-5.6-3.6c-8.6-28.3-29.2-42.5-57.2-46.9
		c-12.6-2-25.1-0.6-35.9,7.3c-12.5,9.2-13,21.9-1.5,32.2c6.1,5.4,13.2,9,20.5,12.3c19.4,8.6,39.6,15.2,58.4,25.2
		c7.1,3.8,14.1,7.7,20.2,12.9c23.3,19.5,23.9,49.9,1.3,70.2c-21.2,18.9-46.8,23.2-74,21.2c-12.4-0.9-24.1-4.5-35.7-8.4
		c-11-3.7-21-3.5-28.4,6.9c-1.5,2.2-3.6,2.2-5.7,1.7c-2.7-0.6-1.6-3.1-1.6-4.7C1410.9,900.9,1411,890.7,1411,880.6z"/>
	<path class="st4" d="M767.2,485.7c0-16.7,0.2-33.5-0.1-50.2c-0.1-4.5,1.3-5.5,5.5-5.4c11.6,0.1,23.1,0.7,34.2,4.4
		c15.1,5.2,25.3,15.2,29.3,30.9c3.4,13.5,3.4,27.1-0.1,40.5c-5.4,20.8-20.4,30.8-40.4,34.6c-7.4,1.4-15,1.6-22.6,1.5
		c-4.5-0.1-6.1-1.3-6-6.1C767.4,519.2,767.2,502.5,767.2,485.7z"/>
	<path class="st5" d="M1540.5,585.7c-31.3,0-61.3,0-91.3,0c-3.4,0-5-0.4-2.8-4.2c15.4-27.8,30.7-55.6,46.7-84.6
		C1509,526.7,1524.5,555.6,1540.5,585.7z"/>
	<path class="st5" d="M482.6,585.5c-32.5,0-63.6,0-96.2,0c16.3-29.6,32.2-58.5,48.8-88.7C451.2,526.8,466.6,555.7,482.6,585.5z"/>
	<path class="st5" d="M1241.2,814.9c0-23.6,0.1-47.2-0.1-70.8c-0.1-4.9,1.2-6.8,6.3-6.3c7.7,0.8,15.6,0.6,23.3,1.7
		c25.3,3.5,40.5,19.1,48,42.4c8.4,26,8.3,52.6,0.1,78.6c-9,28.6-31,43-61,40.9c-13.6-0.9-16.4-3.6-16.5-17.2
		C1241.2,861.1,1241.3,838,1241.2,814.9C1241.3,814.9,1241.3,814.9,1241.2,814.9z"/>
	<path class="st4" d="M818.7,817.6c0.2,20.1-1.2,37.9-8.8,54.6c-10.2,22.7-27.8,33.5-52.6,33.4c-25-0.2-42.3-11.6-51.9-34.4
		c-9.1-21.4-9.9-44-8.3-66.8c0.7-9.2,2.1-18.2,4.9-27.1c9.1-29.5,30.8-45.3,59.9-43.7c28.4,1.6,47.6,19.4,53.7,49.4
		C818,795.1,818.8,807.3,818.7,817.6z"/>
	<path class="st4" d="M1082.3,818.7c0.2,17.8-1.2,33.9-7,49.4c-14.9,39.8-51.2,42.6-77.6,33.1c-14.8-5.3-23.8-17-29-31.2
		c-12-32.8-12.2-66.3-0.7-99.1c9.2-26.3,32.3-39.8,59.4-37.2c27.8,2.7,45.8,19.7,51.8,49C1081.7,795.1,1082.5,807.6,1082.3,818.7z"
		/>
</g>
</svg>
